<svg viewBox="0 0 800 500" width="800" height="500" xmlns="http://www.w3.org/2000/svg" font-family="Helvetica, Arial, sans-serif">
<rect width="800" height="500" fill="#FFFFFF"/>

<rect x="0" y="0" width="800" height="52" fill="#F7F7F7"/>
<line x1="0" y1="52" x2="800" y2="52" stroke="#E5E5E5"/>
<text x="32" y="32" font-family="Helvetica, Arial, sans-serif" font-size="13" font-weight="700" fill="#4A4A4A">BINS &amp; DEALS</text>
<rect x="330" y="21" width="46" height="9" rx="2" fill="#D6D6D6"/>
<rect x="392" y="21" width="40" height="9" rx="2" fill="#D6D6D6"/>
<rect x="448" y="21" width="64" height="9" rx="2" fill="#D6D6D6"/>
<rect x="528" y="21" width="42" height="9" rx="2" fill="#D6D6D6"/>
<rect x="686" y="15" width="82" height="22" rx="4" fill="#E3E3E3" stroke="#C9C9C9"/>
<text x="727" y="30" text-anchor="middle" font-family="Helvetica, Arial, sans-serif" font-size="9" font-weight="600" fill="#4A4A4A">Call Us</text>

<text x="40" y="90" font-family="'JetBrains Mono', ui-monospace, monospace" font-size="9" letter-spacing="1.5" fill="#B0B0B0">THE PRICING SYSTEM</text>
<text x="40" y="122" font-family="Helvetica, Arial, sans-serif" font-size="26" font-weight="800" fill="#4A4A4A">FIVE TAGS. FIVE PRICES.</text>

<!-- five tag cards, left to right -->
<g>
  <rect x="40" y="170" width="136" height="150" rx="6" fill="#FFFFFF" stroke="#C9C9C9" stroke-width="1.6"/>
  <rect x="56" y="186" width="20" height="20" rx="4" fill="none" stroke="#B0B0B0" stroke-width="1.4"/>
  <rect x="56" y="228" width="58" height="26" rx="3" fill="#D6D6D6"/>
  <rect x="56" y="266" width="80" height="8" rx="2" fill="#E5E5E5"/>
</g>
<g>
  <rect x="186" y="170" width="136" height="150" rx="6" fill="#FFFFFF" stroke="#C9C9C9" stroke-width="1.6"/>
  <rect x="202" y="186" width="20" height="20" rx="4" fill="none" stroke="#B0B0B0" stroke-width="1.4"/>
  <rect x="202" y="228" width="58" height="26" rx="3" fill="#D6D6D6"/>
  <rect x="202" y="266" width="72" height="8" rx="2" fill="#E5E5E5"/>
</g>
<g>
  <rect x="332" y="170" width="136" height="150" rx="6" fill="#FFFFFF" stroke="#C9C9C9" stroke-width="1.6"/>
  <rect x="348" y="186" width="20" height="20" rx="4" fill="none" stroke="#B0B0B0" stroke-width="1.4"/>
  <rect x="348" y="228" width="58" height="26" rx="3" fill="#D6D6D6"/>
  <rect x="348" y="266" width="66" height="8" rx="2" fill="#E5E5E5"/>
</g>
<g>
  <rect x="478" y="170" width="136" height="150" rx="6" fill="#FFFFFF" stroke="#C9C9C9" stroke-width="1.6"/>
  <rect x="494" y="186" width="20" height="20" rx="4" fill="none" stroke="#B0B0B0" stroke-width="1.4"/>
  <rect x="494" y="228" width="58" height="26" rx="3" fill="#D6D6D6"/>
  <rect x="494" y="266" width="76" height="8" rx="2" fill="#E5E5E5"/>
</g>
<g>
  <rect x="624" y="170" width="136" height="150" rx="6" fill="#FFFFFF" stroke="#C9C9C9" stroke-width="1.6"/>
  <rect x="640" y="186" width="20" height="20" rx="4" fill="none" stroke="#B0B0B0" stroke-width="1.4"/>
  <rect x="640" y="228" width="58" height="26" rx="3" fill="#D6D6D6"/>
  <rect x="640" y="266" width="62" height="8" rx="2" fill="#E5E5E5"/>
</g>

<!-- two note panels -->
<rect x="40" y="345" width="356" height="92" rx="6" fill="#FFFFFF" stroke="#E5E5E5" stroke-width="1.4"/>
<rect x="60" y="368" width="150" height="11" rx="2" fill="#B0B0B0"/>
<rect x="60" y="390" width="300" height="7" rx="2" fill="#E5E5E5"/>
<rect x="60" y="404" width="260" height="7" rx="2" fill="#E5E5E5"/>

<rect x="404" y="345" width="356" height="92" rx="6" fill="#FFFFFF" stroke="#E5E5E5" stroke-width="1.4"/>
<rect x="424" y="368" width="180" height="11" rx="2" fill="#B0B0B0"/>
<rect x="424" y="390" width="300" height="7" rx="2" fill="#E5E5E5"/>
<rect x="424" y="404" width="240" height="7" rx="2" fill="#E5E5E5"/>

<text x="40" y="470" font-family="'JetBrains Mono', ui-monospace, monospace" font-size="8" letter-spacing="1" fill="#C9C9C9">NOTE — moved from a stacked list to five square tag cards so the color itself reads as the price, not just a swatch beside it</text>
</svg>
