<svg viewBox="0 0 800 500" width="800" height="500" xmlns="http://www.w3.org/2000/svg" font-family="Helvetica, Arial, sans-serif">
<rect width="800" height="500" fill="#FFFFFF"/>

<rect x="0" y="0" width="800" height="52" fill="#F7F7F7"/>
<line x1="0" y1="52" x2="800" y2="52" stroke="#E5E5E5"/>
<text x="32" y="32" font-family="Helvetica, Arial, sans-serif" font-size="13" font-weight="700" fill="#4A4A4A">BINS &amp; DEALS</text>
<rect x="330" y="21" width="46" height="9" rx="2" fill="#D6D6D6"/>
<rect x="392" y="21" width="40" height="9" rx="2" fill="#D6D6D6"/>
<rect x="448" y="21" width="64" height="9" rx="2" fill="#D6D6D6"/>
<rect x="528" y="21" width="42" height="9" rx="2" fill="#D6D6D6"/>
<rect x="686" y="15" width="82" height="22" rx="11" fill="#E3E3E3" stroke="#C9C9C9"/>
<text x="727" y="30" text-anchor="middle" font-family="Helvetica, Arial, sans-serif" font-size="9" font-weight="600" fill="#4A4A4A">Call Us</text>

<text x="40" y="90" font-family="'JetBrains Mono', ui-monospace, monospace" font-size="9" letter-spacing="1.5" fill="#B0B0B0">PRICING SYSTEM</text>
<text x="40" y="120" font-family="Helvetica, Arial, sans-serif" font-size="24" font-weight="700" fill="#4A4A4A">TREASURE HUNT SAVINGS</text>
<rect x="40" y="138" width="380" height="8" rx="2" fill="#E5E5E5"/>

<!-- left: five tag rows -->
<g>
  <rect x="40" y="190" width="430" height="50" rx="8" fill="#FFFFFF" stroke="#E5E5E5"/>
  <circle cx="70" cy="215" r="14" fill="none" stroke="#B0B0B0" stroke-width="1.4"/>
  <rect x="100" y="209" width="110" height="10" rx="2" fill="#D6D6D6"/>
  <text x="450" y="223" text-anchor="end" font-family="Helvetica, Arial, sans-serif" font-size="20" font-weight="700" fill="#8A8A8A">$9</text>
</g>
<g>
  <rect x="40" y="246" width="430" height="50" rx="8" fill="#FFFFFF" stroke="#E5E5E5"/>
  <circle cx="70" cy="271" r="14" fill="none" stroke="#B0B0B0" stroke-width="1.4"/>
  <rect x="100" y="265" width="110" height="10" rx="2" fill="#D6D6D6"/>
  <text x="450" y="279" text-anchor="end" font-family="Helvetica, Arial, sans-serif" font-size="20" font-weight="700" fill="#8A8A8A">$7</text>
</g>
<g>
  <rect x="40" y="302" width="430" height="50" rx="8" fill="#FFFFFF" stroke="#E5E5E5"/>
  <circle cx="70" cy="327" r="14" fill="none" stroke="#B0B0B0" stroke-width="1.4"/>
  <rect x="100" y="321" width="110" height="10" rx="2" fill="#D6D6D6"/>
  <text x="450" y="335" text-anchor="end" font-family="Helvetica, Arial, sans-serif" font-size="20" font-weight="700" fill="#8A8A8A">$5</text>
</g>
<g>
  <rect x="40" y="358" width="430" height="50" rx="8" fill="#FFFFFF" stroke="#E5E5E5"/>
  <circle cx="70" cy="383" r="14" fill="none" stroke="#B0B0B0" stroke-width="1.4"/>
  <rect x="100" y="377" width="110" height="10" rx="2" fill="#D6D6D6"/>
  <text x="450" y="391" text-anchor="end" font-family="Helvetica, Arial, sans-serif" font-size="20" font-weight="700" fill="#8A8A8A">$3</text>
</g>
<g>
  <rect x="40" y="414" width="430" height="50" rx="8" fill="#FFFFFF" stroke="#E5E5E5"/>
  <circle cx="70" cy="439" r="14" fill="none" stroke="#B0B0B0" stroke-width="1.4"/>
  <rect x="100" y="433" width="110" height="10" rx="2" fill="#D6D6D6"/>
  <text x="450" y="447" text-anchor="end" font-family="Helvetica, Arial, sans-serif" font-size="20" font-weight="700" fill="#8A8A8A">$2</text>
</g>

<!-- right: poster graphic placeholder -->
<rect x="520" y="190" width="240" height="274" rx="10" fill="#F7F7F7" stroke="#C9C9C9" stroke-dasharray="5 4"/>
<circle cx="610" cy="280" r="12" fill="none" stroke="#B0B0B0" stroke-width="1.4"/>
<path d="M 580 340 L 620 292 L 650 320 L 680 292 L 700 340 Z" fill="none" stroke="#B0B0B0" stroke-width="1.4" stroke-linejoin="round"/>
<text x="640" y="390" text-anchor="middle" font-family="'JetBrains Mono', ui-monospace, monospace" font-size="8" letter-spacing="1" fill="#B0B0B0">POSTER GRAPHIC</text>
<text x="640" y="404" text-anchor="middle" font-family="'JetBrains Mono', ui-monospace, monospace" font-size="7" letter-spacing=".5" fill="#C9C9C9">store-branded, same tags as in-person</text>

<text x="40" y="486" font-family="'JetBrains Mono', ui-monospace, monospace" font-size="8" letter-spacing="1" fill="#C9C9C9">NOTE — list rows read faster than a card grid on mobile, poster reinforces the in-store tag colors</text>
</svg>
