<svg viewBox="0 0 800 500" width="800" height="500" xmlns="http://www.w3.org/2000/svg" font-family="Helvetica, Arial, sans-serif">
<rect width="800" height="500" fill="#FFFFFF"/>
<rect x="0" y="0" width="168" height="500" fill="#F7F7F7"/>
<circle cx="28" cy="30" r="11" fill="#E5E5E5" stroke="#C9C9C9"/>
<path d="M 22 36 q6 -7 12 0" stroke="#B0B0B0" fill="none" stroke-width="1.3"/>
<text x="46" y="27" font-family="Helvetica, Arial, sans-serif" font-size="10" font-weight="600" fill="#4A4A4A">Marcus Stoinis</text>
<text x="46" y="39" font-family="Helvetica, Arial, sans-serif" font-size="8.5" fill="#B0B0B0">Head of Finance</text>
<line x1="16" y1="50" x2="154" y2="50" stroke="#E5E5E5"/>
<text x="16" y="68" font-family="'JetBrains Mono', ui-monospace, monospace" font-size="8" letter-spacing="1" fill="#B0B0B0">WORKSPACE</text>
<text x="21" y="87" font-family="Helvetica, Arial, sans-serif" font-size="10.5" fill="#8A8A8A">Dashboard</text>
<rect x="12" y="95" width="144" height="22" rx="5" fill="#E3E3E3"/>
<rect x="12" y="95" width="3" height="22" fill="#8A8A8A"/>
<text x="21" y="110" font-family="Helvetica, Arial, sans-serif" font-size="10.5" font-weight="700" fill="#4A4A4A">Expenses</text>
<text x="21" y="133" font-family="Helvetica, Arial, sans-serif" font-size="10.5" fill="#8A8A8A">Approvals</text>
<text x="21" y="156" font-family="Helvetica, Arial, sans-serif" font-size="10.5" fill="#8A8A8A">Reimbursements</text>
<text x="16" y="184" font-family="'JetBrains Mono', ui-monospace, monospace" font-size="8" letter-spacing="1" fill="#B0B0B0">FINANCE</text>
<text x="21" y="203" font-family="Helvetica, Arial, sans-serif" font-size="10.5" fill="#8A8A8A">Reports</text>
<text x="21" y="226" font-family="Helvetica, Arial, sans-serif" font-size="10.5" fill="#8A8A8A">Cards</text>
<text x="21" y="249" font-family="Helvetica, Arial, sans-serif" font-size="10.5" fill="#8A8A8A">Vendors</text>
<text x="21" y="272" font-family="Helvetica, Arial, sans-serif" font-size="10.5" fill="#8A8A8A">Audit log</text>
<text x="16" y="300" font-family="'JetBrains Mono', ui-monospace, monospace" font-size="8" letter-spacing="1" fill="#B0B0B0">CONFIGURE</text>
<text x="21" y="319" font-family="Helvetica, Arial, sans-serif" font-size="10.5" fill="#8A8A8A">Policies</text>
<text x="21" y="342" font-family="Helvetica, Arial, sans-serif" font-size="10.5" fill="#8A8A8A">Team &amp; roles</text>
<text x="21" y="365" font-family="Helvetica, Arial, sans-serif" font-size="10.5" fill="#8A8A8A">Integrations</text>
<text x="21" y="388" font-family="Helvetica, Arial, sans-serif" font-size="10.5" fill="#8A8A8A">Settings</text>
<line x1="168" y1="0" x2="168" y2="500" stroke="#E5E5E5"/>
<rect x="170" y="0" width="630" height="500" fill="#FFFFFF"/>
<rect x="193" y="20" width="200" height="24" rx="6" fill="#F7F7F7" stroke="#E5E5E5"/>
<circle cx="207" cy="32" r="4.5" fill="none" stroke="#B0B0B0" stroke-width="1.3"/>
<line x1="210" y1="35" x2="214" y2="39" stroke="#B0B0B0" stroke-width="1.3"/>
<text x="220" y="36" font-family="Helvetica, Arial, sans-serif" font-size="9.5" fill="#B0B0B0">Search or jump to...</text>
<rect x="407" y="21" width="83.60000000000001" height="22" rx="11" fill="#E3E3E3" stroke="#C9C9C9"/>
<text x="448.8" y="36" text-anchor="middle" font-family="Helvetica, Arial, sans-serif" font-size="9.5" font-weight="700" fill="#4A4A4A">Finance Admin</text>
<rect x="497.6" y="21" width="52.4" height="22" rx="11" fill="none" stroke="#E5E5E5"/>
<text x="523.8000000000001" y="36" text-anchor="middle" font-family="Helvetica, Arial, sans-serif" font-size="9.5" font-weight="500" fill="#4A4A4A">Manager</text>
<rect x="557.0" y="21" width="57.6" height="22" rx="11" fill="none" stroke="#E5E5E5"/>
<text x="585.8" y="36" text-anchor="middle" font-family="Helvetica, Arial, sans-serif" font-size="9.5" font-weight="500" fill="#4A4A4A">Employee</text>
<circle cx="762" cy="32" r="14" fill="#F7F7F7" stroke="#E5E5E5"/>
<text x="762" y="36" text-anchor="middle" font-family="Helvetica, Arial, sans-serif" font-size="9" font-weight="700" fill="#8A8A8A">MS</text>
<circle cx="734" cy="32" r="9.5" fill="none" stroke="#C9C9C9" stroke-width="1.1"/>
<circle cx="708" cy="32" r="9.5" fill="none" stroke="#C9C9C9" stroke-width="1.1"/>
<circle cx="738" cy="25" r="2.6" fill="#8A8A8A"/>
<line x1="169" y1="54" x2="800" y2="54" stroke="#E5E5E5"/>
<text x="193" y="84" font-family="'JetBrains Mono', ui-monospace, monospace" font-size="8" letter-spacing="1" fill="#B0B0B0">WORKSPACE / EXPENSES</text>
<text x="193" y="102" font-family="Helvetica, Arial, sans-serif" font-size="16.5" font-weight="700" fill="#4A4A4A">All Expenses</text>
<text x="193" y="116" font-family="Helvetica, Arial, sans-serif" font-size="9.5" fill="#8A8A8A">14 expenses this cycle</text>
<rect x="727.6" y="72" width="48.400000000000006" height="23" rx="6" fill="#FFFFFF" stroke="#C9C9C9"/>
<text x="751.8000000000001" y="87" text-anchor="middle" font-family="Helvetica, Arial, sans-serif" font-size="9.5" font-weight="600" fill="#4A4A4A">Import</text>
<rect x="649.6" y="72" width="70.0" height="23" rx="6" fill="#FFFFFF" stroke="#C9C9C9"/>
<text x="684.6" y="87" text-anchor="middle" font-family="Helvetica, Arial, sans-serif" font-size="9.5" font-weight="600" fill="#4A4A4A">Export CSV</text>
<rect x="566.2" y="72" width="75.4" height="23" rx="6" fill="#C9C9C9" stroke="#C9C9C9"/>
<text x="603.9000000000001" y="87" text-anchor="middle" font-family="Helvetica, Arial, sans-serif" font-size="9.5" font-weight="700" fill="#4A4A4A">New Expense</text>
<rect x="193" y="139" width="29.6" height="21" rx="10.5" fill="#E3E3E3" stroke="#C9C9C9"/>
<text x="207.8" y="153" text-anchor="middle" font-family="Helvetica, Arial, sans-serif" font-size="9" font-weight="700" fill="#4A4A4A">All</text>
<rect x="229.6" y="139" width="50.4" height="21" rx="10.5" fill="none" stroke="#E5E5E5"/>
<text x="254.79999999999998" y="153" text-anchor="middle" font-family="Helvetica, Arial, sans-serif" font-size="9" font-weight="500" fill="#4A4A4A">Pending</text>
<rect x="287.0" y="139" width="55.6" height="21" rx="10.5" fill="none" stroke="#E5E5E5"/>
<text x="314.8" y="153" text-anchor="middle" font-family="Helvetica, Arial, sans-serif" font-size="9" font-weight="500" fill="#4A4A4A">Approved</text>
<rect x="349.6" y="139" width="50.4" height="21" rx="10.5" fill="none" stroke="#E5E5E5"/>
<text x="374.8" y="153" text-anchor="middle" font-family="Helvetica, Arial, sans-serif" font-size="9" font-weight="500" fill="#4A4A4A">Flagged</text>
<rect x="407.0" y="139" width="55.6" height="21" rx="10.5" fill="none" stroke="#E5E5E5"/>
<text x="434.8" y="153" text-anchor="middle" font-family="Helvetica, Arial, sans-serif" font-size="9" font-weight="500" fill="#4A4A4A">Rejected</text>
<rect x="193" y="168" width="180" height="24" rx="6" fill="#FFFFFF" stroke="#E5E5E5"/>
<text x="205" y="183" font-family="Helvetica, Arial, sans-serif" font-size="9.5" fill="#B0B0B0">Search expenses</text>
<rect x="383" y="168" width="102" height="24" rx="6" fill="#FFFFFF" stroke="#E5E5E5"/>
<text x="393" y="183" font-family="Helvetica, Arial, sans-serif" font-size="9.5" fill="#8A8A8A">Category</text>
<path d="M 469 179 l4.5 4.5 l4.5 -4.5" stroke="#B0B0B0" fill="none" stroke-width="1.2"/>
<rect x="495" y="168" width="102" height="24" rx="6" fill="#FFFFFF" stroke="#E5E5E5"/>
<text x="505" y="183" font-family="Helvetica, Arial, sans-serif" font-size="9.5" fill="#8A8A8A">Date range</text>
<path d="M 581 179 l4.5 4.5 l4.5 -4.5" stroke="#B0B0B0" fill="none" stroke-width="1.2"/>
<rect x="193" y="206" width="583" height="270" rx="7" fill="#FFFFFF" stroke="#E5E5E5"/>
<text x="207.0" y="228" font-family="'JetBrains Mono', ui-monospace, monospace" font-size="7.5" letter-spacing=".5" fill="#B0B0B0">ID</text>
<text x="318.0" y="228" font-family="'JetBrains Mono', ui-monospace, monospace" font-size="7.5" letter-spacing=".5" fill="#B0B0B0">Date</text>
<text x="429.0" y="228" font-family="'JetBrains Mono', ui-monospace, monospace" font-size="7.5" letter-spacing=".5" fill="#B0B0B0">Merchant</text>
<text x="540.0" y="228" font-family="'JetBrains Mono', ui-monospace, monospace" font-size="7.5" letter-spacing=".5" fill="#B0B0B0">Amount</text>
<text x="651.0" y="228" font-family="'JetBrains Mono', ui-monospace, monospace" font-size="7.5" letter-spacing=".5" fill="#B0B0B0">Status</text>
<line x1="207" y1="235" x2="762" y2="235" stroke="#E5E5E5"/>
<rect x="207.0" y="252" width="48.08530018496754" height="7" rx="2" fill="#E5E5E5"/>
<rect x="318.0" y="252" width="40.534566441804515" height="7" rx="2" fill="#E5E5E5"/>
<rect x="429.0" y="252" width="62.36328974818962" height="7" rx="2" fill="#E5E5E5"/>
<rect x="540.0" y="252" width="37.111843913038236" height="7" rx="2" fill="#E5E5E5"/>
<rect x="651.0" y="249" width="46" height="14" rx="7" fill="none" stroke="#C9C9C9"/>
<text x="674.0" y="260" text-anchor="middle" font-family="Helvetica, Arial, sans-serif" font-size="7.5" fill="#8A8A8A">Pending</text>
<line x1="207" y1="268" x2="762" y2="268" stroke="#E5E5E5" stroke-dasharray="2 3"/>
<rect x="207.0" y="276" width="57.34124948798698" height="7" rx="2" fill="#E5E5E5"/>
<rect x="318.0" y="276" width="49.912321223234365" height="7" rx="2" fill="#E5E5E5"/>
<rect x="429.0" y="276" width="36.48165306641595" height="7" rx="2" fill="#E5E5E5"/>
<rect x="540.0" y="276" width="56.09956975371819" height="7" rx="2" fill="#E5E5E5"/>
<rect x="651.0" y="273" width="46" height="14" rx="7" fill="none" stroke="#C9C9C9"/>
<text x="674.0" y="284" text-anchor="middle" font-family="Helvetica, Arial, sans-serif" font-size="7.5" fill="#8A8A8A">Flagged</text>
<line x1="207" y1="292" x2="762" y2="292" stroke="#E5E5E5" stroke-dasharray="2 3"/>
<rect x="207.0" y="300" width="35.586685490992636" height="7" rx="2" fill="#E5E5E5"/>
<rect x="318.0" y="300" width="52.87863409186315" height="7" rx="2" fill="#E5E5E5"/>
<rect x="429.0" y="300" width="36.99918923903212" height="7" rx="2" fill="#E5E5E5"/>
<rect x="540.0" y="300" width="37.909623032459706" height="7" rx="2" fill="#E5E5E5"/>
<rect x="651.0" y="297" width="46" height="14" rx="7" fill="none" stroke="#C9C9C9"/>
<text x="674.0" y="308" text-anchor="middle" font-family="Helvetica, Arial, sans-serif" font-size="7.5" fill="#8A8A8A">Paid</text>
<line x1="207" y1="316" x2="762" y2="316" stroke="#E5E5E5" stroke-dasharray="2 3"/>
<rect x="207.0" y="324" width="52.48026260607073" height="7" rx="2" fill="#E5E5E5"/>
<rect x="318.0" y="324" width="70.04209524193446" height="7" rx="2" fill="#E5E5E5"/>
<rect x="429.0" y="324" width="39.353955604182026" height="7" rx="2" fill="#E5E5E5"/>
<rect x="540.0" y="324" width="43.69438080509618" height="7" rx="2" fill="#E5E5E5"/>
<rect x="651.0" y="321" width="46" height="14" rx="7" fill="none" stroke="#C9C9C9"/>
<text x="674.0" y="332" text-anchor="middle" font-family="Helvetica, Arial, sans-serif" font-size="7.5" fill="#8A8A8A">Pending</text>
<line x1="207" y1="340" x2="762" y2="340" stroke="#E5E5E5" stroke-dasharray="2 3"/>
<rect x="207.0" y="348" width="61.337460158003964" height="7" rx="2" fill="#E5E5E5"/>
<rect x="318.0" y="348" width="75.3174953382483" height="7" rx="2" fill="#E5E5E5"/>
<rect x="429.0" y="348" width="59.14054370715381" height="7" rx="2" fill="#E5E5E5"/>
<rect x="540.0" y="348" width="51.265102718506554" height="7" rx="2" fill="#E5E5E5"/>
<rect x="651.0" y="345" width="46" height="14" rx="7" fill="none" stroke="#C9C9C9"/>
<text x="674.0" y="356" text-anchor="middle" font-family="Helvetica, Arial, sans-serif" font-size="7.5" fill="#8A8A8A">Flagged</text>
<line x1="207" y1="364" x2="762" y2="364" stroke="#E5E5E5" stroke-dasharray="2 3"/>
<rect x="207.0" y="372" width="76.56353535913095" height="7" rx="2" fill="#E5E5E5"/>
<rect x="318.0" y="372" width="35.98333400896506" height="7" rx="2" fill="#E5E5E5"/>
<rect x="429.0" y="372" width="71.42214823747487" height="7" rx="2" fill="#E5E5E5"/>
<rect x="540.0" y="372" width="46.59144534837767" height="7" rx="2" fill="#E5E5E5"/>
<rect x="651.0" y="369" width="46" height="14" rx="7" fill="none" stroke="#C9C9C9"/>
<text x="674.0" y="380" text-anchor="middle" font-family="Helvetica, Arial, sans-serif" font-size="7.5" fill="#8A8A8A">Paid</text>
</svg>