<svg viewBox="0 0 800 500" width="800" height="500" xmlns="http://www.w3.org/2000/svg" font-family="Helvetica, Arial, sans-serif">
<rect width="800" height="500" fill="#FFFFFF"/>
<rect x="0" y="0" width="168" height="500" fill="#F7F7F7"/>
<circle cx="28" cy="30" r="11" fill="#E5E5E5" stroke="#C9C9C9"/>
<path d="M 22 36 q6 -7 12 0" stroke="#B0B0B0" fill="none" stroke-width="1.3"/>
<text x="46" y="27" font-family="Helvetica, Arial, sans-serif" font-size="10" font-weight="600" fill="#4A4A4A">Marcus Stoinis</text>
<text x="46" y="39" font-family="Helvetica, Arial, sans-serif" font-size="8.5" fill="#B0B0B0">Head of Finance</text>
<line x1="16" y1="50" x2="154" y2="50" stroke="#E5E5E5"/>
<text x="16" y="68" font-family="'JetBrains Mono', ui-monospace, monospace" font-size="8" letter-spacing="1" fill="#B0B0B0">WORKSPACE</text>
<text x="21" y="87" font-family="Helvetica, Arial, sans-serif" font-size="10.5" fill="#8A8A8A">Dashboard</text>
<rect x="12" y="95" width="144" height="22" rx="5" fill="#E3E3E3"/>
<rect x="12" y="95" width="3" height="22" fill="#8A8A8A"/>
<text x="21" y="110" font-family="Helvetica, Arial, sans-serif" font-size="10.5" font-weight="700" fill="#4A4A4A">Expenses</text>
<text x="21" y="133" font-family="Helvetica, Arial, sans-serif" font-size="10.5" fill="#8A8A8A">Approvals</text>
<text x="21" y="156" font-family="Helvetica, Arial, sans-serif" font-size="10.5" fill="#8A8A8A">Reimbursements</text>
<text x="16" y="184" font-family="'JetBrains Mono', ui-monospace, monospace" font-size="8" letter-spacing="1" fill="#B0B0B0">FINANCE</text>
<text x="21" y="203" font-family="Helvetica, Arial, sans-serif" font-size="10.5" fill="#8A8A8A">Reports</text>
<text x="21" y="226" font-family="Helvetica, Arial, sans-serif" font-size="10.5" fill="#8A8A8A">Cards</text>
<text x="21" y="249" font-family="Helvetica, Arial, sans-serif" font-size="10.5" fill="#8A8A8A">Vendors</text>
<text x="21" y="272" font-family="Helvetica, Arial, sans-serif" font-size="10.5" fill="#8A8A8A">Audit log</text>
<text x="16" y="300" font-family="'JetBrains Mono', ui-monospace, monospace" font-size="8" letter-spacing="1" fill="#B0B0B0">CONFIGURE</text>
<text x="21" y="319" font-family="Helvetica, Arial, sans-serif" font-size="10.5" fill="#8A8A8A">Policies</text>
<text x="21" y="342" font-family="Helvetica, Arial, sans-serif" font-size="10.5" fill="#8A8A8A">Team &amp; roles</text>
<text x="21" y="365" font-family="Helvetica, Arial, sans-serif" font-size="10.5" fill="#8A8A8A">Integrations</text>
<text x="21" y="388" font-family="Helvetica, Arial, sans-serif" font-size="10.5" fill="#8A8A8A">Settings</text>
<line x1="168" y1="0" x2="168" y2="500" stroke="#E5E5E5"/>
<rect x="170" y="0" width="630" height="500" fill="#FFFFFF"/>
<rect x="193" y="20" width="200" height="24" rx="6" fill="#F7F7F7" stroke="#E5E5E5"/>
<circle cx="207" cy="32" r="4.5" fill="none" stroke="#B0B0B0" stroke-width="1.3"/>
<line x1="210" y1="35" x2="214" y2="39" stroke="#B0B0B0" stroke-width="1.3"/>
<text x="220" y="36" font-family="Helvetica, Arial, sans-serif" font-size="9.5" fill="#B0B0B0">Search or jump to...</text>
<rect x="407" y="21" width="83.60000000000001" height="22" rx="11" fill="#E3E3E3" stroke="#C9C9C9"/>
<text x="448.8" y="36" text-anchor="middle" font-family="Helvetica, Arial, sans-serif" font-size="9.5" font-weight="700" fill="#4A4A4A">Finance Admin</text>
<rect x="497.6" y="21" width="52.4" height="22" rx="11" fill="none" stroke="#E5E5E5"/>
<text x="523.8000000000001" y="36" text-anchor="middle" font-family="Helvetica, Arial, sans-serif" font-size="9.5" font-weight="500" fill="#4A4A4A">Manager</text>
<rect x="557.0" y="21" width="57.6" height="22" rx="11" fill="none" stroke="#E5E5E5"/>
<text x="585.8" y="36" text-anchor="middle" font-family="Helvetica, Arial, sans-serif" font-size="9.5" font-weight="500" fill="#4A4A4A">Employee</text>
<circle cx="762" cy="32" r="14" fill="#F7F7F7" stroke="#E5E5E5"/>
<text x="762" y="36" text-anchor="middle" font-family="Helvetica, Arial, sans-serif" font-size="9" font-weight="700" fill="#8A8A8A">MS</text>
<circle cx="734" cy="32" r="9.5" fill="none" stroke="#C9C9C9" stroke-width="1.1"/>
<circle cx="708" cy="32" r="9.5" fill="none" stroke="#C9C9C9" stroke-width="1.1"/>
<circle cx="738" cy="25" r="2.6" fill="#8A8A8A"/>
<line x1="169" y1="54" x2="800" y2="54" stroke="#E5E5E5"/>
<text x="193" y="84" font-family="'JetBrains Mono', ui-monospace, monospace" font-size="8" letter-spacing="1" fill="#B0B0B0">WORKSPACE / EXPENSES / NEW</text>
<text x="193" y="102" font-family="Helvetica, Arial, sans-serif" font-size="16.5" font-weight="700" fill="#4A4A4A">New Expense</text>
<rect x="706.0" y="72" width="70.0" height="23" rx="6" fill="#FFFFFF" stroke="#C9C9C9"/>
<text x="741.0" y="87" text-anchor="middle" font-family="Helvetica, Arial, sans-serif" font-size="9.5" font-weight="600" fill="#4A4A4A">Save Draft</text>
<rect x="579.4" y="72" width="118.60000000000001" height="23" rx="6" fill="#C9C9C9" stroke="#C9C9C9"/>
<text x="638.6999999999999" y="87" text-anchor="middle" font-family="Helvetica, Arial, sans-serif" font-size="9.5" font-weight="700" fill="#4A4A4A">Submit for Approval</text>
<text x="193" y="149" font-family="Helvetica, Arial, sans-serif" font-size="9" fill="#8A8A8A">Merchant</text>
<rect x="193" y="154" width="149.925" height="24" rx="5" fill="#FFFFFF" stroke="#E5E5E5"/>
<rect x="203" y="163" width="79.955" height="7" rx="2" fill="#E5E5E5"/>
<text x="354.925" y="149" font-family="Helvetica, Arial, sans-serif" font-size="9" fill="#8A8A8A">Date</text>
<rect x="354.925" y="154" width="149.925" height="24" rx="5" fill="#FFFFFF" stroke="#E5E5E5"/>
<rect x="364.925" y="163" width="79.955" height="7" rx="2" fill="#E5E5E5"/>
<text x="193" y="187" font-family="Helvetica, Arial, sans-serif" font-size="9" fill="#8A8A8A">Amount</text>
<rect x="193" y="192" width="149.925" height="24" rx="5" fill="#FFFFFF" stroke="#E5E5E5"/>
<rect x="203" y="201" width="79.955" height="7" rx="2" fill="#E5E5E5"/>
<text x="354.925" y="187" font-family="Helvetica, Arial, sans-serif" font-size="9" fill="#8A8A8A">Category</text>
<rect x="354.925" y="192" width="149.925" height="24" rx="5" fill="#FFFFFF" stroke="#E5E5E5"/>
<rect x="364.925" y="201" width="79.955" height="7" rx="2" fill="#E5E5E5"/>
<text x="193" y="225" font-family="Helvetica, Arial, sans-serif" font-size="9" fill="#8A8A8A">Memo</text>
<rect x="193" y="230" width="311.85" height="44" rx="5" fill="#FFFFFF" stroke="#E5E5E5"/>
<rect x="203" y="241" width="291.85" height="6" rx="2" fill="#E5E5E5"/>
<rect x="203" y="252" width="187.11" height="6" rx="2" fill="#E5E5E5"/>
<text x="193" y="281" font-family="Helvetica, Arial, sans-serif" font-size="9" fill="#8A8A8A">Project / cost center</text>
<rect x="193" y="286" width="149.925" height="24" rx="5" fill="#FFFFFF" stroke="#E5E5E5"/>
<rect x="203" y="295" width="79.955" height="7" rx="2" fill="#E5E5E5"/>
<text x="354.925" y="281" font-family="Helvetica, Arial, sans-serif" font-size="9" fill="#8A8A8A">Payment method</text>
<rect x="354.925" y="286" width="149.925" height="24" rx="5" fill="#FFFFFF" stroke="#E5E5E5"/>
<rect x="364.925" y="295" width="79.955" height="7" rx="2" fill="#E5E5E5"/>
<rect x="520.85" y="148" width="255.14999999999998" height="118" rx="7" fill="#F7F7F7" stroke="#C9C9C9" stroke-dasharray="5 4"/>
<path d="M 640.425 196 v-13 m-5.5 5.5 l5.5 -5.5 l5.5 5.5" stroke="#B0B0B0" fill="none" stroke-width="1.4" stroke-linecap="round" stroke-linejoin="round"/>
<rect x="635.425" y="201" width="26" height="16" rx="3" fill="none" stroke="#B0B0B0" stroke-width="1.1"/>
<text x="648.425" y="234" text-anchor="middle" font-family="Helvetica, Arial, sans-serif" font-size="9" font-weight="600" fill="#8A8A8A">Drop receipt or browse</text>
<rect x="616.425" y="242" width="64" height="18" rx="5" fill="#FFFFFF" stroke="#C9C9C9"/>
<text x="648.425" y="254" text-anchor="middle" font-family="Helvetica, Arial, sans-serif" font-size="8" font-weight="600" fill="#4A4A4A">Choose File</text>
<rect x="520.85" y="278" width="255.14999999999998" height="92" rx="7" fill="#FFFFFF" stroke="#E5E5E5"/>
<text x="532.85" y="298" font-family="Helvetica, Arial, sans-serif" font-size="9.5" font-weight="600" fill="#4A4A4A">Approval routing</text>
<circle cx="540.85" cy="316" r="8.5" fill="#E5E5E5" stroke="#E5E5E5"/>
<text x="554.85" y="319" font-family="Helvetica, Arial, sans-serif" font-size="8.5" fill="#8A8A8A">Xavier B. — Manager</text>
<circle cx="540.85" cy="342" r="8.5" fill="#E5E5E5" stroke="#E5E5E5"/>
<text x="554.85" y="345" font-family="Helvetica, Arial, sans-serif" font-size="8.5" fill="#8A8A8A">Marcus S. — Finance</text>
</svg>