<svg viewBox="0 0 800 500" width="800" height="500" xmlns="http://www.w3.org/2000/svg" font-family="Helvetica, Arial, sans-serif">
<rect width="800" height="500" fill="#FFFFFF"/>
<rect x="0" y="0" width="168" height="500" fill="#F7F7F7"/>
<circle cx="28" cy="30" r="11" fill="#E5E5E5" stroke="#C9C9C9"/>
<path d="M 22 36 q6 -7 12 0" stroke="#B0B0B0" fill="none" stroke-width="1.3"/>
<text x="46" y="27" font-family="Helvetica, Arial, sans-serif" font-size="10" font-weight="600" fill="#4A4A4A">Marcus Stoinis</text>
<text x="46" y="39" font-family="Helvetica, Arial, sans-serif" font-size="8.5" fill="#B0B0B0">Head of Finance</text>
<line x1="16" y1="50" x2="154" y2="50" stroke="#E5E5E5"/>
<text x="16" y="68" font-family="'JetBrains Mono', ui-monospace, monospace" font-size="8" letter-spacing="1" fill="#B0B0B0">WORKSPACE</text>
<text x="21" y="87" font-family="Helvetica, Arial, sans-serif" font-size="10.5" fill="#8A8A8A">Dashboard</text>
<text x="21" y="110" font-family="Helvetica, Arial, sans-serif" font-size="10.5" fill="#8A8A8A">Expenses</text>
<rect x="12" y="118" width="144" height="22" rx="5" fill="#E3E3E3"/>
<rect x="12" y="118" width="3" height="22" fill="#8A8A8A"/>
<text x="21" y="133" font-family="Helvetica, Arial, sans-serif" font-size="10.5" font-weight="700" fill="#4A4A4A">Approvals</text>
<text x="21" y="156" font-family="Helvetica, Arial, sans-serif" font-size="10.5" fill="#8A8A8A">Reimbursements</text>
<text x="16" y="184" font-family="'JetBrains Mono', ui-monospace, monospace" font-size="8" letter-spacing="1" fill="#B0B0B0">FINANCE</text>
<text x="21" y="203" font-family="Helvetica, Arial, sans-serif" font-size="10.5" fill="#8A8A8A">Reports</text>
<text x="21" y="226" font-family="Helvetica, Arial, sans-serif" font-size="10.5" fill="#8A8A8A">Cards</text>
<text x="21" y="249" font-family="Helvetica, Arial, sans-serif" font-size="10.5" fill="#8A8A8A">Vendors</text>
<text x="21" y="272" font-family="Helvetica, Arial, sans-serif" font-size="10.5" fill="#8A8A8A">Audit log</text>
<text x="16" y="300" font-family="'JetBrains Mono', ui-monospace, monospace" font-size="8" letter-spacing="1" fill="#B0B0B0">CONFIGURE</text>
<text x="21" y="319" font-family="Helvetica, Arial, sans-serif" font-size="10.5" fill="#8A8A8A">Policies</text>
<text x="21" y="342" font-family="Helvetica, Arial, sans-serif" font-size="10.5" fill="#8A8A8A">Team &amp; roles</text>
<text x="21" y="365" font-family="Helvetica, Arial, sans-serif" font-size="10.5" fill="#8A8A8A">Integrations</text>
<text x="21" y="388" font-family="Helvetica, Arial, sans-serif" font-size="10.5" fill="#8A8A8A">Settings</text>
<line x1="168" y1="0" x2="168" y2="500" stroke="#E5E5E5"/>
<rect x="170" y="0" width="630" height="500" fill="#FFFFFF"/>
<rect x="193" y="20" width="200" height="24" rx="6" fill="#F7F7F7" stroke="#E5E5E5"/>
<circle cx="207" cy="32" r="4.5" fill="none" stroke="#B0B0B0" stroke-width="1.3"/>
<line x1="210" y1="35" x2="214" y2="39" stroke="#B0B0B0" stroke-width="1.3"/>
<text x="220" y="36" font-family="Helvetica, Arial, sans-serif" font-size="9.5" fill="#B0B0B0">Search or jump to...</text>
<rect x="407" y="21" width="83.60000000000001" height="22" rx="11" fill="#E3E3E3" stroke="#C9C9C9"/>
<text x="448.8" y="36" text-anchor="middle" font-family="Helvetica, Arial, sans-serif" font-size="9.5" font-weight="700" fill="#4A4A4A">Finance Admin</text>
<rect x="497.6" y="21" width="52.4" height="22" rx="11" fill="none" stroke="#E5E5E5"/>
<text x="523.8000000000001" y="36" text-anchor="middle" font-family="Helvetica, Arial, sans-serif" font-size="9.5" font-weight="500" fill="#4A4A4A">Manager</text>
<rect x="557.0" y="21" width="57.6" height="22" rx="11" fill="none" stroke="#E5E5E5"/>
<text x="585.8" y="36" text-anchor="middle" font-family="Helvetica, Arial, sans-serif" font-size="9.5" font-weight="500" fill="#4A4A4A">Employee</text>
<circle cx="762" cy="32" r="14" fill="#F7F7F7" stroke="#E5E5E5"/>
<text x="762" y="36" text-anchor="middle" font-family="Helvetica, Arial, sans-serif" font-size="9" font-weight="700" fill="#8A8A8A">MS</text>
<circle cx="734" cy="32" r="9.5" fill="none" stroke="#C9C9C9" stroke-width="1.1"/>
<circle cx="708" cy="32" r="9.5" fill="none" stroke="#C9C9C9" stroke-width="1.1"/>
<circle cx="738" cy="25" r="2.6" fill="#8A8A8A"/>
<line x1="169" y1="54" x2="800" y2="54" stroke="#E5E5E5"/>
<text x="193" y="84" font-family="'JetBrains Mono', ui-monospace, monospace" font-size="8" letter-spacing="1" fill="#B0B0B0">WORKSPACE / DASHBOARD</text>
<text x="193" y="102" font-family="Helvetica, Arial, sans-serif" font-size="16.5" font-weight="700" fill="#4A4A4A">Theo's Team — Sales</text>
<text x="193" y="116" font-family="Helvetica, Arial, sans-serif" font-size="9.5" fill="#8A8A8A">$84,200 MTD spend</text>
<rect x="673.6" y="72" width="102.4" height="23" rx="6" fill="#C9C9C9" stroke="#C9C9C9"/>
<text x="724.8000000000001" y="87" text-anchor="middle" font-family="Helvetica, Arial, sans-serif" font-size="9.5" font-weight="700" fill="#4A4A4A">Review Approvals</text>
<rect x="584.8" y="72" width="80.80000000000001" height="23" rx="6" fill="#FFFFFF" stroke="#C9C9C9"/>
<text x="625.1999999999999" y="87" text-anchor="middle" font-family="Helvetica, Arial, sans-serif" font-size="9.5" font-weight="600" fill="#4A4A4A">Message Team</text>
<rect x="193.0" y="148" width="136.75" height="52" rx="7" fill="#FFFFFF" stroke="#E5E5E5"/>
<text x="205.0" y="166" font-family="'JetBrains Mono', ui-monospace, monospace" font-size="7.5" letter-spacing=".5" fill="#B0B0B0">TEAM SPEND MTD</text>
<text x="205.0" y="183" font-family="Helvetica, Arial, sans-serif" font-size="13" font-weight="700" fill="#4A4A4A">$84,200</text>
<rect x="341.75" y="148" width="136.75" height="52" rx="7" fill="#FFFFFF" stroke="#E5E5E5"/>
<text x="353.75" y="166" font-family="'JetBrains Mono', ui-monospace, monospace" font-size="7.5" letter-spacing=".5" fill="#B0B0B0">AWAITING YOU</text>
<text x="353.75" y="183" font-family="Helvetica, Arial, sans-serif" font-size="13" font-weight="700" fill="#4A4A4A">8</text>
<rect x="490.5" y="148" width="136.75" height="52" rx="7" fill="#FFFFFF" stroke="#E5E5E5"/>
<text x="502.5" y="166" font-family="'JetBrains Mono', ui-monospace, monospace" font-size="7.5" letter-spacing=".5" fill="#B0B0B0">AVG. APPROVAL TIME</text>
<text x="502.5" y="183" font-family="Helvetica, Arial, sans-serif" font-size="13" font-weight="700" fill="#4A4A4A">4.2h</text>
<rect x="639.25" y="148" width="136.75" height="52" rx="7" fill="#FFFFFF" stroke="#E5E5E5"/>
<text x="651.25" y="166" font-family="'JetBrains Mono', ui-monospace, monospace" font-size="7.5" letter-spacing=".5" fill="#B0B0B0">TEAM BUDGET %</text>
<text x="651.25" y="183" font-family="Helvetica, Arial, sans-serif" font-size="13" font-weight="700" fill="#4A4A4A">62%</text>
<rect x="193" y="214" width="320.65000000000003" height="208" rx="7" fill="#FFFFFF" stroke="#E5E5E5"/>
<text x="207" y="234" font-family="Helvetica, Arial, sans-serif" font-size="10" font-weight="600" fill="#4A4A4A">Team spend by member</text>
<rect x="207.0" y="326.0" width="18" height="76.0" rx="3" fill="#E5E5E5" stroke="#E5E5E5"/>
<text x="216.0" y="414" text-anchor="middle" font-family="Helvetica, Arial, sans-serif" font-size="7.5" fill="#B0B0B0">W1</text>
<rect x="261.93" y="280.4" width="18" height="121.60000000000001" rx="3" fill="#E5E5E5" stroke="#E5E5E5"/>
<text x="270.93" y="414" text-anchor="middle" font-family="Helvetica, Arial, sans-serif" font-size="7.5" fill="#B0B0B0">W2</text>
<rect x="316.86" y="348.8" width="18" height="53.199999999999996" rx="3" fill="#E5E5E5" stroke="#E5E5E5"/>
<text x="325.86" y="414" text-anchor="middle" font-family="Helvetica, Arial, sans-serif" font-size="7.5" fill="#B0B0B0">W3</text>
<rect x="371.79" y="257.6" width="18" height="144.4" rx="3" fill="#E5E5E5" stroke="#E5E5E5"/>
<text x="380.79" y="414" text-anchor="middle" font-family="Helvetica, Arial, sans-serif" font-size="7.5" fill="#B0B0B0">W4</text>
<rect x="426.72" y="310.8" width="18" height="91.2" rx="3" fill="#E5E5E5" stroke="#E5E5E5"/>
<text x="435.72" y="414" text-anchor="middle" font-family="Helvetica, Arial, sans-serif" font-size="7.5" fill="#B0B0B0">W5</text>
<rect x="481.65000000000003" y="288.0" width="18" height="114.0" rx="3" fill="#E5E5E5" stroke="#E5E5E5"/>
<text x="490.65000000000003" y="414" text-anchor="middle" font-family="Helvetica, Arial, sans-serif" font-size="7.5" fill="#B0B0B0">W6</text>
<rect x="527.6500000000001" y="214" width="248.34999999999997" height="208" rx="7" fill="#FFFFFF" stroke="#E5E5E5"/>
<text x="541.6500000000001" y="234" font-family="Helvetica, Arial, sans-serif" font-size="10" font-weight="600" fill="#4A4A4A">Approvals queue</text>
<circle cx="549.6500000000001" cy="250" r="8.5" fill="#E5E5E5" stroke="#E5E5E5"/>
<text x="565.6500000000001" y="249" font-family="Helvetica, Arial, sans-serif" font-size="9" font-weight="600" fill="#4A4A4A">Corey A.</text>
<rect x="565.6500000000001" y="253" width="60" height="6" rx="2" fill="#E5E5E5"/>
<rect x="714.0" y="242" width="46" height="16" rx="8" fill="none" stroke="#C9C9C9"/>
<text x="737.0" y="253" text-anchor="middle" font-family="Helvetica, Arial, sans-serif" font-size="7.5" fill="#8A8A8A">Review</text>
<circle cx="549.6500000000001" cy="282.8" r="8.5" fill="#E5E5E5" stroke="#E5E5E5"/>
<text x="565.6500000000001" y="281.8" font-family="Helvetica, Arial, sans-serif" font-size="9" font-weight="600" fill="#4A4A4A">Sam R.</text>
<rect x="565.6500000000001" y="285.8" width="60" height="6" rx="2" fill="#E5E5E5"/>
<rect x="714.0" y="274.8" width="46" height="16" rx="8" fill="none" stroke="#C9C9C9"/>
<text x="737.0" y="285.8" text-anchor="middle" font-family="Helvetica, Arial, sans-serif" font-size="7.5" fill="#8A8A8A">Review</text>
<circle cx="549.6500000000001" cy="315.6" r="8.5" fill="#E5E5E5" stroke="#E5E5E5"/>
<text x="565.6500000000001" y="314.6" font-family="Helvetica, Arial, sans-serif" font-size="9" font-weight="600" fill="#4A4A4A">Jordan L.</text>
<rect x="565.6500000000001" y="318.6" width="60" height="6" rx="2" fill="#E5E5E5"/>
<rect x="714.0" y="307.6" width="46" height="16" rx="8" fill="none" stroke="#C9C9C9"/>
<text x="737.0" y="318.6" text-anchor="middle" font-family="Helvetica, Arial, sans-serif" font-size="7.5" fill="#8A8A8A">Review</text>
<circle cx="549.6500000000001" cy="348.40000000000003" r="8.5" fill="#E5E5E5" stroke="#E5E5E5"/>
<text x="565.6500000000001" y="347.40000000000003" font-family="Helvetica, Arial, sans-serif" font-size="9" font-weight="600" fill="#4A4A4A">Priya K.</text>
<rect x="565.6500000000001" y="351.40000000000003" width="60" height="6" rx="2" fill="#E5E5E5"/>
<rect x="714.0" y="340.40000000000003" width="46" height="16" rx="8" fill="none" stroke="#C9C9C9"/>
<text x="737.0" y="351.40000000000003" text-anchor="middle" font-family="Helvetica, Arial, sans-serif" font-size="7.5" fill="#8A8A8A">Review</text>
<circle cx="549.6500000000001" cy="381.20000000000005" r="8.5" fill="#E5E5E5" stroke="#E5E5E5"/>
<text x="565.6500000000001" y="380.20000000000005" font-family="Helvetica, Arial, sans-serif" font-size="9" font-weight="600" fill="#4A4A4A">Theo B.</text>
<rect x="565.6500000000001" y="384.20000000000005" width="60" height="6" rx="2" fill="#E5E5E5"/>
<rect x="714.0" y="373.20000000000005" width="46" height="16" rx="8" fill="none" stroke="#C9C9C9"/>
<text x="737.0" y="384.20000000000005" text-anchor="middle" font-family="Helvetica, Arial, sans-serif" font-size="7.5" fill="#8A8A8A">Review</text>
<rect x="193.0" y="434" width="186.33333333333334" height="36" rx="7" fill="#FFFFFF" stroke="#E5E5E5"/>
<text x="286.1666666666667" y="456" text-anchor="middle" font-family="Helvetica, Arial, sans-serif" font-size="9.5" font-weight="600" fill="#4A4A4A">Quick Approve</text>
<rect x="391.33333333333337" y="434" width="186.33333333333334" height="36" rx="7" fill="#FFFFFF" stroke="#E5E5E5"/>
<text x="484.50000000000006" y="456" text-anchor="middle" font-family="Helvetica, Arial, sans-serif" font-size="9.5" font-weight="600" fill="#4A4A4A">Budget Snapshot</text>
<rect x="589.6666666666667" y="434" width="186.33333333333334" height="36" rx="7" fill="#FFFFFF" stroke="#E5E5E5"/>
<text x="682.8333333333334" y="456" text-anchor="middle" font-family="Helvetica, Arial, sans-serif" font-size="9.5" font-weight="600" fill="#4A4A4A">Policy Reminders</text>
</svg>