<svg viewBox="0 0 800 500" width="800" height="500" xmlns="http://www.w3.org/2000/svg" font-family="Helvetica, Arial, sans-serif">
<rect width="800" height="500" fill="#FFFFFF"/>
<rect x="0" y="0" width="168" height="500" fill="#F7F7F7"/>
<circle cx="28" cy="30" r="11" fill="#E5E5E5" stroke="#C9C9C9"/>
<path d="M 22 36 q6 -7 12 0" stroke="#B0B0B0" fill="none" stroke-width="1.3"/>
<text x="46" y="27" font-family="Helvetica, Arial, sans-serif" font-size="10" font-weight="600" fill="#4A4A4A">Marcus Stoinis</text>
<text x="46" y="39" font-family="Helvetica, Arial, sans-serif" font-size="8.5" fill="#B0B0B0">Head of Finance</text>
<line x1="16" y1="50" x2="154" y2="50" stroke="#E5E5E5"/>
<text x="16" y="68" font-family="'JetBrains Mono', ui-monospace, monospace" font-size="8" letter-spacing="1" fill="#B0B0B0">WORKSPACE</text>
<text x="21" y="87" font-family="Helvetica, Arial, sans-serif" font-size="10.5" fill="#8A8A8A">Dashboard</text>
<text x="21" y="110" font-family="Helvetica, Arial, sans-serif" font-size="10.5" fill="#8A8A8A">Expenses</text>
<text x="21" y="133" font-family="Helvetica, Arial, sans-serif" font-size="10.5" fill="#8A8A8A">Approvals</text>
<rect x="12" y="141" width="144" height="22" rx="5" fill="#E3E3E3"/>
<rect x="12" y="141" width="3" height="22" fill="#8A8A8A"/>
<text x="21" y="156" font-family="Helvetica, Arial, sans-serif" font-size="10.5" font-weight="700" fill="#4A4A4A">Reimbursements</text>
<text x="16" y="184" font-family="'JetBrains Mono', ui-monospace, monospace" font-size="8" letter-spacing="1" fill="#B0B0B0">FINANCE</text>
<text x="21" y="203" font-family="Helvetica, Arial, sans-serif" font-size="10.5" fill="#8A8A8A">Reports</text>
<text x="21" y="226" font-family="Helvetica, Arial, sans-serif" font-size="10.5" fill="#8A8A8A">Cards</text>
<text x="21" y="249" font-family="Helvetica, Arial, sans-serif" font-size="10.5" fill="#8A8A8A">Vendors</text>
<text x="21" y="272" font-family="Helvetica, Arial, sans-serif" font-size="10.5" fill="#8A8A8A">Audit log</text>
<text x="16" y="300" font-family="'JetBrains Mono', ui-monospace, monospace" font-size="8" letter-spacing="1" fill="#B0B0B0">CONFIGURE</text>
<text x="21" y="319" font-family="Helvetica, Arial, sans-serif" font-size="10.5" fill="#8A8A8A">Policies</text>
<text x="21" y="342" font-family="Helvetica, Arial, sans-serif" font-size="10.5" fill="#8A8A8A">Team &amp; roles</text>
<text x="21" y="365" font-family="Helvetica, Arial, sans-serif" font-size="10.5" fill="#8A8A8A">Integrations</text>
<text x="21" y="388" font-family="Helvetica, Arial, sans-serif" font-size="10.5" fill="#8A8A8A">Settings</text>
<line x1="168" y1="0" x2="168" y2="500" stroke="#E5E5E5"/>
<rect x="170" y="0" width="630" height="500" fill="#FFFFFF"/>
<rect x="193" y="20" width="200" height="24" rx="6" fill="#F7F7F7" stroke="#E5E5E5"/>
<circle cx="207" cy="32" r="4.5" fill="none" stroke="#B0B0B0" stroke-width="1.3"/>
<line x1="210" y1="35" x2="214" y2="39" stroke="#B0B0B0" stroke-width="1.3"/>
<text x="220" y="36" font-family="Helvetica, Arial, sans-serif" font-size="9.5" fill="#B0B0B0">Search or jump to...</text>
<rect x="407" y="21" width="83.60000000000001" height="22" rx="11" fill="#E3E3E3" stroke="#C9C9C9"/>
<text x="448.8" y="36" text-anchor="middle" font-family="Helvetica, Arial, sans-serif" font-size="9.5" font-weight="700" fill="#4A4A4A">Finance Admin</text>
<rect x="497.6" y="21" width="52.4" height="22" rx="11" fill="none" stroke="#E5E5E5"/>
<text x="523.8000000000001" y="36" text-anchor="middle" font-family="Helvetica, Arial, sans-serif" font-size="9.5" font-weight="500" fill="#4A4A4A">Manager</text>
<rect x="557.0" y="21" width="57.6" height="22" rx="11" fill="none" stroke="#E5E5E5"/>
<text x="585.8" y="36" text-anchor="middle" font-family="Helvetica, Arial, sans-serif" font-size="9.5" font-weight="500" fill="#4A4A4A">Employee</text>
<circle cx="762" cy="32" r="14" fill="#F7F7F7" stroke="#E5E5E5"/>
<text x="762" y="36" text-anchor="middle" font-family="Helvetica, Arial, sans-serif" font-size="9" font-weight="700" fill="#8A8A8A">MS</text>
<circle cx="734" cy="32" r="9.5" fill="none" stroke="#C9C9C9" stroke-width="1.1"/>
<circle cx="708" cy="32" r="9.5" fill="none" stroke="#C9C9C9" stroke-width="1.1"/>
<circle cx="738" cy="25" r="2.6" fill="#8A8A8A"/>
<line x1="169" y1="54" x2="800" y2="54" stroke="#E5E5E5"/>
<text x="193" y="84" font-family="'JetBrains Mono', ui-monospace, monospace" font-size="8" letter-spacing="1" fill="#B0B0B0">FINANCE / PAYOUTS</text>
<text x="193" y="102" font-family="Helvetica, Arial, sans-serif" font-size="16.5" font-weight="700" fill="#4A4A4A">Payouts</text>
<text x="193" y="116" font-family="Helvetica, Arial, sans-serif" font-size="9.5" fill="#8A8A8A">Next batch: May 30, 2026</text>
<rect x="679.0" y="72" width="97.0" height="23" rx="6" fill="#FFFFFF" stroke="#C9C9C9"/>
<text x="727.5" y="87" text-anchor="middle" font-family="Helvetica, Arial, sans-serif" font-size="9.5" font-weight="600" fill="#4A4A4A">Export ACH File</text>
<rect x="574.0" y="72" width="97.0" height="23" rx="6" fill="#C9C9C9" stroke="#C9C9C9"/>
<text x="622.5" y="87" text-anchor="middle" font-family="Helvetica, Arial, sans-serif" font-size="9.5" font-weight="700" fill="#4A4A4A">Schedule Payout</text>
<rect x="193.0" y="148" width="186.33333333333334" height="52" rx="7" fill="#FFFFFF" stroke="#E5E5E5"/>
<text x="205.0" y="166" font-family="'JetBrains Mono', ui-monospace, monospace" font-size="7.5" letter-spacing=".5" fill="#B0B0B0">OWED THIS CYCLE</text>
<text x="205.0" y="183" font-family="Helvetica, Arial, sans-serif" font-size="13" font-weight="700" fill="#4A4A4A">$4,820</text>
<rect x="391.33333333333337" y="148" width="186.33333333333334" height="52" rx="7" fill="#FFFFFF" stroke="#E5E5E5"/>
<text x="403.33333333333337" y="166" font-family="'JetBrains Mono', ui-monospace, monospace" font-size="7.5" letter-spacing=".5" fill="#B0B0B0">SCHEDULED</text>
<text x="403.33333333333337" y="183" font-family="Helvetica, Arial, sans-serif" font-size="13" font-weight="700" fill="#4A4A4A">$2,100</text>
<rect x="589.6666666666667" y="148" width="186.33333333333334" height="52" rx="7" fill="#FFFFFF" stroke="#E5E5E5"/>
<text x="601.6666666666667" y="166" font-family="'JetBrains Mono', ui-monospace, monospace" font-size="7.5" letter-spacing=".5" fill="#B0B0B0">PAID YTD</text>
<text x="601.6666666666667" y="183" font-family="Helvetica, Arial, sans-serif" font-size="13" font-weight="700" fill="#4A4A4A">$61,400</text>
<rect x="193" y="214" width="583" height="262" rx="7" fill="#FFFFFF" stroke="#E5E5E5"/>
<text x="207" y="234" font-family="Helvetica, Arial, sans-serif" font-size="10" font-weight="600" fill="#4A4A4A">Payouts</text>
<text x="207.0" y="254" font-family="'JetBrains Mono', ui-monospace, monospace" font-size="7.5" letter-spacing=".5" fill="#B0B0B0">ID</text>
<text x="318.0" y="254" font-family="'JetBrains Mono', ui-monospace, monospace" font-size="7.5" letter-spacing=".5" fill="#B0B0B0">Employee</text>
<text x="429.0" y="254" font-family="'JetBrains Mono', ui-monospace, monospace" font-size="7.5" letter-spacing=".5" fill="#B0B0B0">Amount</text>
<text x="540.0" y="254" font-family="'JetBrains Mono', ui-monospace, monospace" font-size="7.5" letter-spacing=".5" fill="#B0B0B0">Status</text>
<text x="651.0" y="254" font-family="'JetBrains Mono', ui-monospace, monospace" font-size="7.5" letter-spacing=".5" fill="#B0B0B0">Date</text>
<line x1="207" y1="261" x2="762" y2="261" stroke="#E5E5E5"/>
<rect x="207.0" y="278" width="40.24673438855215" height="7" rx="2" fill="#E5E5E5"/>
<rect x="318.0" y="278" width="39.09163119212078" height="7" rx="2" fill="#E5E5E5"/>
<rect x="429.0" y="278" width="47.41523162204943" height="7" rx="2" fill="#E5E5E5"/>
<rect x="540.0" y="275" width="46" height="14" rx="7" fill="none" stroke="#C9C9C9"/>
<text x="563.0" y="286" text-anchor="middle" font-family="Helvetica, Arial, sans-serif" font-size="7.5" fill="#8A8A8A">Paid</text>
<rect x="651.0" y="278" width="69.57391557558937" height="7" rx="2" fill="#E5E5E5"/>
<line x1="207" y1="294" x2="762" y2="294" stroke="#E5E5E5" stroke-dasharray="2 3"/>
<rect x="207.0" y="302" width="41.838706483679864" height="7" rx="2" fill="#E5E5E5"/>
<rect x="318.0" y="302" width="59.336847143866656" height="7" rx="2" fill="#E5E5E5"/>
<rect x="429.0" y="302" width="61.83857291862794" height="7" rx="2" fill="#E5E5E5"/>
<rect x="540.0" y="299" width="46" height="14" rx="7" fill="none" stroke="#C9C9C9"/>
<text x="563.0" y="310" text-anchor="middle" font-family="Helvetica, Arial, sans-serif" font-size="7.5" fill="#8A8A8A">Pending</text>
<rect x="651.0" y="302" width="50.205152739978175" height="7" rx="2" fill="#E5E5E5"/>
<line x1="207" y1="318" x2="762" y2="318" stroke="#E5E5E5" stroke-dasharray="2 3"/>
<rect x="207.0" y="326" width="57.8590459282222" height="7" rx="2" fill="#E5E5E5"/>
<rect x="318.0" y="326" width="36.69073875758555" height="7" rx="2" fill="#E5E5E5"/>
<rect x="429.0" y="326" width="36.55159106902605" height="7" rx="2" fill="#E5E5E5"/>
<rect x="540.0" y="323" width="46" height="14" rx="7" fill="none" stroke="#C9C9C9"/>
<text x="563.0" y="334" text-anchor="middle" font-family="Helvetica, Arial, sans-serif" font-size="7.5" fill="#8A8A8A">Flagged</text>
<rect x="651.0" y="326" width="42.9400978145636" height="7" rx="2" fill="#E5E5E5"/>
<line x1="207" y1="342" x2="762" y2="342" stroke="#E5E5E5" stroke-dasharray="2 3"/>
<rect x="207.0" y="350" width="63.64945882938497" height="7" rx="2" fill="#E5E5E5"/>
<rect x="318.0" y="350" width="52.61440414246944" height="7" rx="2" fill="#E5E5E5"/>
<rect x="429.0" y="350" width="47.66252398694695" height="7" rx="2" fill="#E5E5E5"/>
<rect x="540.0" y="347" width="46" height="14" rx="7" fill="none" stroke="#C9C9C9"/>
<text x="563.0" y="358" text-anchor="middle" font-family="Helvetica, Arial, sans-serif" font-size="7.5" fill="#8A8A8A">Paid</text>
<rect x="651.0" y="350" width="59.50977534210843" height="7" rx="2" fill="#E5E5E5"/>
<line x1="207" y1="366" x2="762" y2="366" stroke="#E5E5E5" stroke-dasharray="2 3"/>
<rect x="207.0" y="374" width="53.73149802858434" height="7" rx="2" fill="#E5E5E5"/>
<rect x="318.0" y="374" width="47.034829413099736" height="7" rx="2" fill="#E5E5E5"/>
<rect x="429.0" y="374" width="68.62466436845673" height="7" rx="2" fill="#E5E5E5"/>
<rect x="540.0" y="371" width="46" height="14" rx="7" fill="none" stroke="#C9C9C9"/>
<text x="563.0" y="382" text-anchor="middle" font-family="Helvetica, Arial, sans-serif" font-size="7.5" fill="#8A8A8A">Pending</text>
<rect x="651.0" y="374" width="64.46110703229579" height="7" rx="2" fill="#E5E5E5"/>
</svg>