<svg viewBox="0 0 800 500" width="800" height="500" xmlns="http://www.w3.org/2000/svg" font-family="'Inter', Helvetica, Arial, sans-serif">
<rect width="800" height="500" fill="#FFFFFF"/><rect x="0" y="0" width="168" height="500" fill="#FAFAF9"/><rect x="0" y="0" width="168" height="500" fill="none" stroke="#E7E5E0" stroke-width="1"/><circle cx="28" cy="30" r="11" fill="#D9EFE9" stroke="#BEE0D6"/><text x="28" y="34" text-anchor="middle" font-family="'Inter', Helvetica, Arial, sans-serif" font-size="10" font-weight="700" fill="#0E3B30">MS</text><text x="46" y="27" font-family="'Inter', Helvetica, Arial, sans-serif" font-size="10" font-weight="600" fill="#1C1C1A">Marcus Stoinis</text><text x="46" y="39" font-family="'Inter', Helvetica, Arial, sans-serif" font-size="8.5" fill="#9C9990">Head of Finance</text><line x1="16" y1="50" x2="154" y2="50" stroke="#E7E5E0"/><text x="16" y="68" font-family="'JetBrains Mono', ui-monospace, monospace" font-size="8" letter-spacing="1" fill="#9C9990">WORKSPACE</text><text x="21" y="87" font-family="'Inter', Helvetica, Arial, sans-serif" font-size="10.5" fill="#6B6862">Dashboard</text><rect x="12" y="95" width="144" height="22" rx="5" fill="#0E3B30"/><text x="21" y="110" font-family="'Inter', Helvetica, Arial, sans-serif" font-size="10.5" font-weight="600" fill="#FFFFFF">Expenses</text><text x="144" y="110" text-anchor="end" font-family="'Inter', Helvetica, Arial, sans-serif" font-size="9.5" fill="#CFE9E1">14</text><text x="21" y="133" font-family="'Inter', Helvetica, Arial, sans-serif" font-size="10.5" fill="#6B6862">Approvals</text><text x="144" y="133" text-anchor="end" font-family="'Inter', Helvetica, Arial, sans-serif" font-size="9.5" fill="#9C9990">5</text><text x="21" y="156" font-family="'Inter', Helvetica, Arial, sans-serif" font-size="10.5" fill="#6B6862">Reimbursements</text><text x="16" y="184" font-family="'JetBrains Mono', ui-monospace, monospace" font-size="8" letter-spacing="1" fill="#9C9990">FINANCE</text><text x="21" y="203" font-family="'Inter', Helvetica, Arial, sans-serif" font-size="10.5" fill="#6B6862">Reports</text><text x="21" y="226" font-family="'Inter', Helvetica, Arial, sans-serif" font-size="10.5" fill="#6B6862">Cards</text><text x="21" y="249" font-family="'Inter', Helvetica, Arial, sans-serif" font-size="10.5" fill="#6B6862">Vendors</text><text x="21" y="272" font-family="'Inter', Helvetica, Arial, sans-serif" font-size="10.5" fill="#6B6862">Audit log</text><text x="16" y="300" font-family="'JetBrains Mono', ui-monospace, monospace" font-size="8" letter-spacing="1" fill="#9C9990">CONFIGURE</text><text x="21" y="319" font-family="'Inter', Helvetica, Arial, sans-serif" font-size="10.5" fill="#6B6862">Policies</text><text x="21" y="342" font-family="'Inter', Helvetica, Arial, sans-serif" font-size="10.5" fill="#6B6862">Team &amp; roles</text><text x="21" y="365" font-family="'Inter', Helvetica, Arial, sans-serif" font-size="10.5" fill="#6B6862">Integrations</text><text x="21" y="388" font-family="'Inter', Helvetica, Arial, sans-serif" font-size="10.5" fill="#6B6862">Settings</text><rect x="193" y="20" width="200" height="24" rx="6" fill="#F7F7F5" stroke="#E7E5E0"/><circle cx="207" cy="32" r="4.5" fill="none" stroke="#9C9990" stroke-width="1.3"/><line x1="210" y1="35" x2="214" y2="39" stroke="#9C9990" stroke-width="1.3"/><text x="220" y="36" font-family="'Inter', Helvetica, Arial, sans-serif" font-size="9.5" fill="#9C9990">Search or jump to...</text><rect x="407" y="21" width="83.60000000000001" height="22" rx="11" fill="#0E3B30" stroke="none"/><text x="448.8" y="36" text-anchor="middle" font-family="'Inter', Helvetica, Arial, sans-serif" font-size="9.5" font-weight="600" fill="#FFFFFF">Finance Admin</text><rect x="497.6" y="21" width="52.4" height="22" rx="11" fill="none" stroke="#E7E5E0"/><text x="523.8000000000001" y="36" text-anchor="middle" font-family="'Inter', Helvetica, Arial, sans-serif" font-size="9.5" font-weight="600" fill="#6B6862">Manager</text><rect x="557.0" y="21" width="57.6" height="22" rx="11" fill="none" stroke="#E7E5E0"/><text x="585.8" y="36" text-anchor="middle" font-family="'Inter', Helvetica, Arial, sans-serif" font-size="9.5" font-weight="600" fill="#6B6862">Employee</text><circle cx="762" cy="32" r="14" fill="#F7F7F5" stroke="#E7E5E0"/><circle cx="734" cy="32" r="9.5" fill="none" stroke="#D8D5CD" stroke-width="1.1"/><circle cx="708" cy="32" r="9.5" fill="none" stroke="#D8D5CD" stroke-width="1.1"/><circle cx="738" cy="25" r="2.6" fill="#C0453A"/><line x1="169" y1="54" x2="800" y2="54" stroke="#E7E5E0"/><text x="193" y="84" font-family="'JetBrains Mono', ui-monospace, monospace" font-size="8" letter-spacing="1" fill="#9C9990">EXPENSES</text><text x="193" y="106" font-family="'Inter', Helvetica, Arial, sans-serif" font-size="20" font-weight="700" fill="#1C1C1A">New expense</text><text x="193" y="122" font-family="'Inter', Helvetica, Arial, sans-serif" font-size="10" fill="#6B6862">Submit a business expense for approval</text><rect x="651.6" y="71" width="124.39999999999999" height="25" rx="6" fill="#0E3B30" stroke="none"/><text x="713.8000000000001" y="88" text-anchor="middle" font-family="'Inter', Helvetica, Arial, sans-serif" font-size="10" font-weight="600" fill="#FFFFFF">Submit for approval</text><rect x="569.6" y="71" width="74.0" height="25" rx="6" fill="#FFFFFF" stroke="#D8D5CD"/><text x="606.6" y="88" text-anchor="middle" font-family="'Inter', Helvetica, Arial, sans-serif" font-size="10" font-weight="600" fill="#1C1C1A">Save draft</text><text x="193" y="142" font-family="'JetBrains Mono', ui-monospace, monospace" font-size="8" letter-spacing=".5" fill="#9C9990">MERCHANT</text>
<rect x="193" y="148" width="144.0" height="28" rx="6" fill="#FFFFFF" stroke="#D8D5CD"/>
<text x="203" y="166" font-family="'Inter', Helvetica, Arial, sans-serif" font-size="11" fill="#1C1C1A">United Airlines</text><text x="349.0" y="142" font-family="'JetBrains Mono', ui-monospace, monospace" font-size="8" letter-spacing=".5" fill="#9C9990">DATE</text>
<rect x="349.0" y="148" width="144.0" height="28" rx="6" fill="#FFFFFF" stroke="#D8D5CD"/>
<text x="359.0" y="166" font-family="'Inter', Helvetica, Arial, sans-serif" font-size="11" fill="#1C1C1A">2026-05-22</text><text x="193" y="188" font-family="'JetBrains Mono', ui-monospace, monospace" font-size="8" letter-spacing=".5" fill="#9C9990">AMOUNT (USD)</text>
<rect x="193" y="194" width="144.0" height="28" rx="6" fill="#FFFFFF" stroke="#D8D5CD"/>
<text x="203" y="212" font-family="'Inter', Helvetica, Arial, sans-serif" font-size="11" fill="#1C1C1A">842.50</text><text x="349.0" y="188" font-family="'JetBrains Mono', ui-monospace, monospace" font-size="8" letter-spacing=".5" fill="#9C9990">CATEGORY</text>
<rect x="349.0" y="194" width="144.0" height="28" rx="6" fill="#FFFFFF" stroke="#D8D5CD"/>
<text x="359.0" y="212" font-family="'Inter', Helvetica, Arial, sans-serif" font-size="11" fill="#1C1C1A">Travel</text>
<path d="M 477.0 205 l4.5 4.5 l4.5 -4.5" stroke="#9C9990" fill="none" stroke-width="1.3"/><text x="193" y="234" font-family="'JetBrains Mono', ui-monospace, monospace" font-size="8" letter-spacing=".5" fill="#9C9990">MEMO</text><rect x="193" y="240" width="300" height="52" rx="6" fill="#FFFFFF" stroke="#D8D5CD"/><text x="203" y="258" font-family="'Inter', Helvetica, Arial, sans-serif" font-size="11" fill="#1C1C1A">SF → Austin (sales kickoff)</text><text x="193" y="300" font-family="'JetBrains Mono', ui-monospace, monospace" font-size="8" letter-spacing=".5" fill="#9C9990">PROJECT / COST CENTER</text>
<rect x="193" y="306" width="144.0" height="28" rx="6" fill="#FFFFFF" stroke="#D8D5CD"/>
<text x="203" y="324" font-family="'Inter', Helvetica, Arial, sans-serif" font-size="11" fill="#1C1C1A">Sales — FY26</text>
<path d="M 321.0 317 l4.5 4.5 l4.5 -4.5" stroke="#9C9990" fill="none" stroke-width="1.3"/><text x="349.0" y="300" font-family="'JetBrains Mono', ui-monospace, monospace" font-size="8" letter-spacing=".5" fill="#9C9990">PAYMENT</text>
<rect x="349.0" y="306" width="144.0" height="28" rx="6" fill="#FFFFFF" stroke="#D8D5CD"/>
<text x="359.0" y="324" font-family="'Inter', Helvetica, Arial, sans-serif" font-size="11" fill="#1C1C1A">FinFlow Card •••• 4112</text>
<path d="M 477.0 317 l4.5 4.5 l4.5 -4.5" stroke="#9C9990" fill="none" stroke-width="1.3"/><text x="517" y="142" font-family="'Inter', Helvetica, Arial, sans-serif" font-size="11" font-weight="600" fill="#1C1C1A">Receipt</text><rect x="517" y="148" width="259" height="118" rx="8" fill="#F7F7F5" stroke="#D8D5CD" stroke-dasharray="5 4"/><circle cx="646.5" cy="186" r="14" fill="#FFFFFF" stroke="#D8D5CD"/><path d="M 642.5 190 v-8 m-3 3 l3 -3 l3 3" stroke="#6B6862" fill="none" stroke-width="1.4" stroke-linecap="round" stroke-linejoin="round"/><text x="646.5" y="220" text-anchor="middle" font-family="'Inter', Helvetica, Arial, sans-serif" font-size="10" font-weight="600" fill="#1C1C1A">Drop a receipt</text><text x="646.5" y="233" text-anchor="middle" font-family="'Inter', Helvetica, Arial, sans-serif" font-size="8.5" fill="#9C9990">PDF or image · OCR fills the form automatically</text><rect x="610.5" y="242" width="72" height="20" rx="5" fill="#FFFFFF" stroke="#D8D5CD"/><text x="646.5" y="256" text-anchor="middle" font-family="'Inter', Helvetica, Arial, sans-serif" font-size="9" font-weight="600" fill="#1C1C1A">Choose file</text><text x="517" y="274" font-family="'Inter', Helvetica, Arial, sans-serif" font-size="11" font-weight="600" fill="#1C1C1A">Approval preview</text><rect x="517" y="280" width="259" height="102" rx="8" fill="#FFFFFF" stroke="#E7E5E0"/><text x="529" y="302" font-family="'Inter', Helvetica, Arial, sans-serif" font-size="9.5" fill="#6B6862">This expense will be routed to:</text><circle cx="539" cy="324" r="10" fill="#D9EFE9" stroke="#BEE0D6"/><text x="539" y="327" text-anchor="middle" font-family="'Inter', Helvetica, Arial, sans-serif" font-size="8" font-weight="700" fill="#0E3B30">XB</text><text x="557" y="323" font-family="'Inter', Helvetica, Arial, sans-serif" font-size="9.5" font-weight="600" fill="#1C1C1A">Xavier Bartlett</text><text x="557" y="334" font-family="'Inter', Helvetica, Arial, sans-serif" font-size="8.5" fill="#9C9990">Head of Sales</text><circle cx="539" cy="352" r="10" fill="#D9EFE9" stroke="#BEE0D6"/><text x="539" y="355" text-anchor="middle" font-family="'Inter', Helvetica, Arial, sans-serif" font-size="8" font-weight="700" fill="#0E3B30">MS</text><text x="557" y="351" font-family="'Inter', Helvetica, Arial, sans-serif" font-size="9.5" font-weight="600" fill="#1C1C1A">Marcus Stoinis</text><text x="557" y="362" font-family="'Inter', Helvetica, Arial, sans-serif" font-size="8.5" fill="#9C9990">Finance</text>
</svg>